<svg width="14" height="11" viewBox="0 0 14 11" fill="none" xmlns="http://www.w3.org/2000/svg">
<path d="M0.984375 2.98828C0.984375 2.38216 1.19629 1.86719 1.62012 1.44336C2.0485 1.01953 2.56348 0.807617 3.16504 0.807617C3.7666 0.807617 4.2793 1.02181 4.70312 1.4502C5.13151 1.87402 5.3457 2.38672 5.3457 2.98828C5.3457 3.58984 5.13151 4.10482 4.70312 4.5332C4.2793 4.95703 3.7666 5.16895 3.16504 5.16895C2.56348 5.16895 2.0485 4.95703 1.62012 4.5332C1.19629 4.10482 0.984375 3.58984 0.984375 2.98828ZM2.11914 2.98828C2.11914 3.27539 2.22168 3.52148 2.42676 3.72656C2.63184 3.93164 2.87793 4.03418 3.16504 4.03418C3.45215 4.03418 3.69824 3.93164 3.90332 3.72656C4.1084 3.52148 4.21094 3.27539 4.21094 2.98828C4.21094 2.70117 4.1084 2.45508 3.90332 2.25C3.69824 2.04492 3.45215 1.94238 3.16504 1.94238C2.87793 1.94238 2.63184 2.04492 2.42676 2.25C2.22168 2.45508 2.11914 2.70117 2.11914 2.98828ZM7.03418 11V0.978516H13.9043V2.67383H9.05762V5.0459H13.2412V6.74121H9.05762V11H7.03418Z" fill="white"/>
</svg>
